<?xml version="1.0" encoding="utf-8"?>
<!-- Generator: Adobe Illustrator 22.0.0, SVG Export Plug-In . SVG Version: 6.00 Build 0)  -->
<svg version="1.1" id="Icon_Set" xmlns="http://www.w3.org/2000/svg" xmlns:xlink="http://www.w3.org/1999/xlink" x="0px" y="0px"
	 viewBox="0 0 64 64" style="enable-background:new 0 0 64 64;" xml:space="preserve">
<style type="text/css">
	.st0{fill:#40C4FF;}
	.st1{fill:#263238;}
	.st2{fill:#FFD740;}
	.st3{fill:#FF5252;}
	.st4{fill:#4DB6AC;}
	.st5{fill:#FFFFFF;}
	.st6{fill:#4FC3F7;}
	.st7{fill:#37474F;}
</style>
<g>
	<g>
		<circle class="st0" cx="30" cy="31.5" r="13.5"/>
		<path class="st1" d="M30,45.5c-7.72,0-14-6.28-14-14s6.28-14,14-14s14,6.28,14,14S37.72,45.5,30,45.5z M30,18.5
			c-7.168,0-13,5.832-13,13s5.832,13,13,13s13-5.832,13-13S37.168,18.5,30,18.5z"/>
	</g>
	<g>
		<circle class="st5" cx="30.001" cy="28" r="6"/>
		<path class="st1" d="M30.001,34.5c-3.584,0-6.5-2.916-6.5-6.5s2.916-6.5,6.5-6.5s6.5,2.916,6.5,6.5S33.585,34.5,30.001,34.5z
			 M30.001,22.5c-3.033,0-5.5,2.467-5.5,5.5s2.467,5.5,5.5,5.5s5.5-2.467,5.5-5.5S33.034,22.5,30.001,22.5z"/>
	</g>
	<g>
		<path class="st2" d="M34.161,24.531l0.447-0.372C33.508,22.84,31.853,22,30.001,22c-3.314,0-6,2.686-6,6h0.566
			C28.072,28,31.467,26.773,34.161,24.531z"/>
		<path class="st1" d="M24.567,28.5h-0.566c-0.276,0-0.5-0.224-0.5-0.5c0-3.584,2.916-6.5,6.5-6.5c1.932,0,3.751,0.852,4.991,2.338
			c0.085,0.102,0.126,0.233,0.114,0.366c-0.012,0.132-0.076,0.254-0.178,0.339l-0.447,0.372C31.703,27.227,28.182,28.5,24.567,28.5z
			 M24.523,27.5h0.044c3.381,0,6.675-1.191,9.274-3.354l0,0l0.045-0.038c-1.028-1.028-2.418-1.609-3.885-1.609
			C27.137,22.5,24.777,24.701,24.523,27.5z"/>
	</g>
	<g>
		<path class="st5" d="M30.001,34c-1.098,0-2.124-0.3-3.01-0.815l0.001,1.82l3.004,3.463l2.996-3.473l-0.001-1.798
			C32.11,33.705,31.091,34,30.001,34z"/>
		<path class="st1" d="M29.996,38.968c-0.145,0-0.283-0.063-0.378-0.172l-3.004-3.463c-0.079-0.091-0.122-0.207-0.122-0.327
			l-0.001-1.82c0-0.179,0.096-0.345,0.25-0.434c0.157-0.089,0.347-0.088,0.501,0.001c1.674,0.976,3.824,0.979,5.499,0.011
			c0.155-0.089,0.345-0.089,0.5,0c0.155,0.089,0.25,0.254,0.25,0.433l0.001,1.798c0,0.12-0.043,0.236-0.122,0.327l-2.996,3.473
			C30.28,38.904,30.142,38.968,29.996,38.968L29.996,38.968z M27.492,34.818l2.503,2.885l2.497-2.894l0-0.809
			c-1.583,0.658-3.42,0.656-5-0.009L27.492,34.818z"/>
	</g>
	<g>
		<path class="st5" d="M35.592,35.858l-2.597-0.863l-2.991,3.472l-3.008-3.463l-2.581,0.855c-1.14,0.378-2.061,1.147-2.665,2.12
			C23.671,40.424,26.649,42,30,42c3.352,0,6.331-1.577,8.253-4.023C37.651,37.005,36.73,36.237,35.592,35.858z"/>
		<path class="st1" d="M30,42.5c-3.389,0-6.54-1.535-8.645-4.211c-0.13-0.165-0.143-0.394-0.032-0.573
			c0.684-1.103,1.726-1.931,2.932-2.331l2.582-0.855c0.19-0.063,0.402-0.005,0.535,0.146l2.63,3.027l2.614-3.034
			c0.132-0.153,0.344-0.212,0.537-0.148l2.597,0.863l0,0c1.205,0.401,2.246,1.228,2.929,2.33c0.111,0.179,0.098,0.407-0.032,0.573
			C36.542,40.964,33.391,42.5,30,42.5z M22.37,37.951c1.909,2.26,4.67,3.549,7.63,3.549c2.961,0,5.723-1.29,7.632-3.551
			c-0.554-0.757-1.323-1.325-2.198-1.616l-2.279-0.757l-2.772,3.218c-0.095,0.11-0.233,0.173-0.378,0.174c0,0,0,0-0.001,0
			c-0.145,0-0.282-0.062-0.377-0.172l-2.791-3.211l-2.265,0.75C23.695,36.625,22.925,37.193,22.37,37.951z"/>
	</g>
	<g>
		<path class="st1" d="M30,42.5c-0.276,0-0.5-0.224-0.5-0.5v-3.532c0-0.276,0.224-0.5,0.5-0.5s0.5,0.224,0.5,0.5V42
			C30.5,42.276,30.276,42.5,30,42.5z"/>
	</g>
	<g>
		<path class="st1" d="M40.606,45.501L40.606,45.501c-0.133,0-0.26-0.053-0.354-0.146l-2.628-2.628
			c-0.103-0.103-0.156-0.246-0.145-0.392c0.011-0.145,0.085-0.278,0.202-0.365c1.041-0.766,1.961-1.679,2.733-2.715
			c0.087-0.117,0.22-0.189,0.365-0.2c0.148-0.007,0.287,0.042,0.39,0.145l2.619,2.619c0.195,0.195,0.195,0.512,0,0.707l-2.829,2.829
			C40.866,45.448,40.739,45.501,40.606,45.501z M38.735,42.422l1.872,1.872l2.122-2.122l-1.865-1.865
			C40.231,41.087,39.518,41.795,38.735,42.422z"/>
	</g>
	<g>
		<path class="st1" d="M50.859,56.046c-0.384,0-0.768-0.146-1.061-0.439l-9.192-9.192c-0.584-0.585-0.584-1.537,0-2.122l2.122-2.121
			c0.585-0.585,1.536-0.585,2.121,0l9.192,9.192c0.283,0.283,0.439,0.66,0.439,1.061c0,0.401-0.156,0.778-0.439,1.061l-2.121,2.121
			C51.628,55.9,51.244,56.046,50.859,56.046z M43.789,42.733c-0.128,0-0.256,0.048-0.354,0.146L41.313,45
			c-0.195,0.195-0.195,0.513,0,0.708l9.192,9.192c0.195,0.196,0.512,0.195,0.708,0l2.121-2.122c0.095-0.094,0.146-0.22,0.146-0.354
			c0-0.133-0.052-0.259-0.146-0.354l-9.192-9.192C44.044,42.782,43.917,42.733,43.789,42.733z"/>
	</g>
	<g>
		<path class="st1" d="M50,59.5H11c-0.827,0-1.5-0.673-1.5-1.5V10c0-0.827,0.673-1.5,1.5-1.5h38c0.827,0,1.5,0.673,1.5,1.5v35.202
			c0,0.276-0.224,0.5-0.5,0.5s-0.5-0.224-0.5-0.5V10c0-0.276-0.224-0.5-0.5-0.5H11c-0.276,0-0.5,0.224-0.5,0.5v48
			c0,0.276,0.224,0.5,0.5,0.5h39c0.276,0,0.5,0.224,0.5,0.5S50.276,59.5,50,59.5z"/>
	</g>
	<g>
		<path class="st1" d="M45,63.5H7c-0.827,0-1.5-0.673-1.5-1.5V15c0-0.827,0.673-1.5,1.5-1.5h1c0.276,0,0.5,0.224,0.5,0.5
			S8.276,14.5,8,14.5H7c-0.276,0-0.5,0.224-0.5,0.5v47c0,0.276,0.224,0.5,0.5,0.5h38c0.276,0,0.5-0.224,0.5-0.5v-1
			c0-0.276,0.224-0.5,0.5-0.5s0.5,0.224,0.5,0.5v1C46.5,62.827,45.827,63.5,45,63.5z"/>
	</g>
	<g>
		<path class="st1" d="M32.501,49.001h-15c-0.276,0-0.5-0.224-0.5-0.5s0.224-0.5,0.5-0.5h15c0.276,0,0.5,0.224,0.5,0.5
			S32.777,49.001,32.501,49.001z"/>
	</g>
	<g>
		<path class="st1" d="M32.501,52.001h-15c-0.276,0-0.5-0.224-0.5-0.5s0.224-0.5,0.5-0.5h15c0.276,0,0.5,0.224,0.5,0.5
			S32.777,52.001,32.501,52.001z"/>
	</g>
	<g>
		<path class="st1" d="M25.001,55.001h-7.5c-0.276,0-0.5-0.224-0.5-0.5s0.224-0.5,0.5-0.5h7.5c0.276,0,0.5,0.224,0.5,0.5
			S25.277,55.001,25.001,55.001z"/>
	</g>
	<g>
		<path class="st1" d="M58,9.5h-4c-0.276,0-0.5-0.224-0.5-0.5s0.224-0.5,0.5-0.5h4c0.276,0,0.5,0.224,0.5,0.5S58.276,9.5,58,9.5z"/>
	</g>
	<g>
		<path class="st1" d="M52,3.5h-4c-0.276,0-0.5-0.224-0.5-0.5s0.224-0.5,0.5-0.5h4c0.276,0,0.5,0.224,0.5,0.5S52.276,3.5,52,3.5z"/>
	</g>
	<g>
		<path class="st1" d="M50,5.5c-0.276,0-0.5-0.224-0.5-0.5V1c0-0.276,0.224-0.5,0.5-0.5s0.5,0.224,0.5,0.5v4
			C50.5,5.276,50.276,5.5,50,5.5z"/>
	</g>
	<g>
		<path class="st1" d="M56,11.5c-0.276,0-0.5-0.224-0.5-0.5V7c0-0.276,0.224-0.5,0.5-0.5s0.5,0.224,0.5,0.5v4
			C56.5,11.276,56.276,11.5,56,11.5z"/>
	</g>
</g>
</svg>
